<svg width="104" height="25" viewBox="0 0 104 25" fill="none" xmlns="http://www.w3.org/2000/svg">
<path d="M22.9543 10.9091C23.5593 10.9091 24.0554 10.4195 23.995 9.81999C23.8883 8.761 23.6264 7.72127 23.2159 6.73436C22.6654 5.41081 21.8585 4.2082 20.8413 3.1952C19.8241 2.1822 18.6165 1.37864 17.2875 0.830405C15.9584 0.282172 14.534 -6.26208e-08 13.0954 0C11.6569 6.26213e-08 10.2324 0.282172 8.9034 0.830405C7.57436 1.37864 6.36677 2.1822 5.34957 3.1952C4.33236 4.2082 3.52548 5.41081 2.97497 6.73436C2.56449 7.72127 2.30255 8.761 2.19585 9.81999C2.13545 10.4195 2.63157 10.9091 3.23655 10.9091L22.9543 10.9091Z" fill="#F1F5F9"/>
<path d="M1.04569 13.0909C0.440705 13.0909 -0.055409 13.5805 0.00499042 14.18C0.111684 15.239 0.373628 16.2787 0.784109 17.2656C1.33462 18.5892 2.1415 19.7918 3.15871 20.8048C4.17591 21.8178 5.3835 22.6214 6.71254 23.1696C8.04158 23.7178 9.46603 24 10.9046 24C12.3431 24 13.7676 23.7178 15.0966 23.1696C16.4256 22.6214 17.6332 21.8178 18.6504 20.8048C19.6676 19.7918 20.4745 18.5892 21.025 17.2656C21.4355 16.2787 21.6975 15.239 21.8042 14.18C21.8645 13.5805 21.3684 13.0909 20.7634 13.0909L1.04569 13.0909Z" fill="#F1F5F9"/>
<path d="M42.38 19.38C41.4333 19.38 40.6067 19.2267 39.9 18.92C39.2067 18.6 38.6267 18.1733 38.16 17.64C37.6933 17.1067 37.3467 16.5067 37.12 15.84C36.8933 15.16 36.78 14.46 36.78 13.74V13.36C36.78 12.6133 36.9 11.9 37.14 11.22C37.38 10.5267 37.7333 9.91333 38.2 9.38C38.6667 8.84667 39.2467 8.42667 39.94 8.12C40.6467 7.81333 41.4533 7.66 42.36 7.66C43.3467 7.66 44.22 7.85333 44.98 8.24C45.74 8.61333 46.3467 9.14 46.8 9.82C47.2533 10.5 47.5067 11.28 47.56 12.16H44.42C44.3667 11.6667 44.1667 11.2533 43.82 10.92C43.4867 10.5733 43 10.4 42.36 10.4C41.8267 10.4 41.38 10.5333 41.02 10.8C40.6733 11.0667 40.4133 11.4333 40.24 11.9C40.0667 12.3667 39.98 12.92 39.98 13.56C39.98 14.1467 40.06 14.68 40.22 15.16C40.38 15.6267 40.6333 15.9933 40.98 16.26C41.34 16.5133 41.8067 16.64 42.38 16.64C42.8067 16.64 43.1667 16.5667 43.46 16.42C43.7667 16.26 44.0067 16.0467 44.18 15.78C44.3667 15.5 44.48 15.18 44.52 14.82H47.64C47.6 15.7267 47.3467 16.5267 46.88 17.22C46.4133 17.9 45.7933 18.4333 45.02 18.82C44.2467 19.1933 43.3667 19.38 42.38 19.38ZM53.3866 19.34C52.1199 19.34 51.1466 18.9333 50.4666 18.12C49.7866 17.2933 49.4466 16.0533 49.4466 14.4V8.04H52.6466V14.56C52.6466 15.1467 52.8132 15.6133 53.1466 15.96C53.4799 16.3067 53.9266 16.48 54.4866 16.48C55.0599 16.48 55.5266 16.3 55.8866 15.94C56.2466 15.58 56.4266 15.0933 56.4266 14.48V8.04H59.6266V19H57.0866V14.38H57.3066C57.3066 15.4867 57.1599 16.4133 56.8666 17.16C56.5866 17.8933 56.1666 18.44 55.6066 18.8C55.0466 19.16 54.3532 19.34 53.5266 19.34H53.3866ZM62.5772 19V8.04H65.1172V12.74H65.0572C65.0572 11.1933 65.3839 10 66.0372 9.16C66.7039 8.32 67.6639 7.9 68.9172 7.9H69.3372V10.66H68.5372C67.6572 10.66 66.9772 10.9 66.4972 11.38C66.0172 11.8467 65.7772 12.5267 65.7772 13.42V19H62.5772ZM74.6952 19.34C73.4285 19.34 72.4552 18.9333 71.7752 18.12C71.0952 17.2933 70.7552 16.0533 70.7552 14.4V8.04H73.9552V14.56C73.9552 15.1467 74.1218 15.6133 74.4552 15.96C74.7885 16.3067 75.2352 16.48 75.7952 16.48C76.3685 16.48 76.8352 16.3 77.1952 15.94C77.5552 15.58 77.7352 15.0933 77.7352 14.48V8.04H80.9352V19H78.3952V14.38H78.6152C78.6152 15.4867 78.4685 16.4133 78.1752 17.16C77.8952 17.8933 77.4752 18.44 76.9152 18.8C76.3552 19.16 75.6618 19.34 74.8352 19.34H74.6952ZM83.8858 23V8.04H86.4258V12.78L86.0858 12.76C86.1391 11.6667 86.3658 10.7467 86.7658 10C87.1658 9.24 87.7058 8.67333 88.3858 8.3C89.0658 7.91333 89.8324 7.72 90.6858 7.72C91.4458 7.72 92.1324 7.86 92.7458 8.14C93.3724 8.42 93.9058 8.81333 94.3458 9.32C94.7991 9.81333 95.1391 10.4 95.3658 11.08C95.6058 11.7467 95.7258 12.48 95.7258 13.28V13.74C95.7258 14.5267 95.6124 15.2667 95.3858 15.96C95.1591 16.64 94.8258 17.2333 94.3858 17.74C93.9591 18.2467 93.4324 18.6467 92.8058 18.94C92.1924 19.22 91.4858 19.36 90.6858 19.36C89.8591 19.36 89.1124 19.1933 88.4458 18.86C87.7924 18.5133 87.2658 17.9933 86.8658 17.3C86.4658 16.5933 86.2458 15.7 86.2058 14.62L87.0858 15.82V23H83.8858ZM89.7858 16.68C90.3324 16.68 90.8058 16.5467 91.2058 16.28C91.6191 16.0133 91.9391 15.64 92.1658 15.16C92.3924 14.68 92.5058 14.1267 92.5058 13.5C92.5058 12.8733 92.3924 12.3267 92.1658 11.86C91.9391 11.3933 91.6258 11.0333 91.2258 10.78C90.8258 10.5133 90.3458 10.38 89.7858 10.38C89.3058 10.38 88.8524 10.4933 88.4258 10.72C87.9991 10.9467 87.6524 11.2733 87.3858 11.7C87.1324 12.1133 87.0058 12.62 87.0058 13.22V13.96C87.0058 14.5333 87.1391 15.0267 87.4058 15.44C87.6858 15.84 88.0391 16.1467 88.4658 16.36C88.8924 16.5733 89.3324 16.68 89.7858 16.68ZM98.4683 19V8.04H101.668V19H98.4683ZM97.0083 10.4V8.04H101.668V10.4H97.0083ZM99.7083 6.96C99.1083 6.96 98.6616 6.80667 98.3683 6.5C98.0883 6.18 97.9483 5.78 97.9483 5.3C97.9483 4.80667 98.0883 4.40667 98.3683 4.1C98.6616 3.78 99.1083 3.62 99.7083 3.62C100.308 3.62 100.748 3.78 101.028 4.1C101.322 4.40667 101.468 4.80667 101.468 5.3C101.468 5.78 101.322 6.18 101.028 6.5C100.748 6.80667 100.308 6.96 99.7083 6.96Z" fill="#F1F5F9"/>
</svg>
